<svg width="20" height="20" viewBox="0 0 20 20" fill="none" xmlns="http://www.w3.org/2000/svg">
<g clip-path="url(#clip0_1_309)">
<path d="M14.999 0.00416129L12.4055 0C9.49179 0 7.6088 1.93188 7.6088 4.92198V7.19134H5.00113C4.7758 7.19134 4.59332 7.37402 4.59332 7.59935V10.8874C4.59332 11.1127 4.776 11.2952 5.00113 11.2952H7.6088V19.592C7.6088 19.8173 7.79127 19.9998 8.01661 19.9998H11.4189C11.6442 19.9998 11.8267 19.8171 11.8267 19.592V11.2952H14.8757C15.101 11.2952 15.2835 11.1127 15.2835 10.8874L15.2847 7.59935C15.2847 7.49116 15.2416 7.38754 15.1653 7.31097C15.0889 7.23441 14.9849 7.19134 14.8767 7.19134H11.8267V5.26757C11.8267 4.34293 12.047 3.87354 13.2515 3.87354L14.9986 3.87291C15.2238 3.87291 15.4062 3.69023 15.4062 3.46511V0.411968C15.4062 0.18705 15.224 0.00457742 14.999 0.00416129Z" fill="#EA3A60"/>
</g>
<defs>
<clipPath id="clip0_1_309">
<rect width="20" height="19.9998" fill="white"/>
</clipPath>
</defs>
</svg>
