<svg width="118" height="32" viewBox="0 0 118 32" fill="none" xmlns="http://www.w3.org/2000/svg">
<path fill-rule="evenodd" clip-rule="evenodd" d="M6.37801 0.999584H111.621C114.557 0.999584 116.937 3.2383 116.937 5.99958V25.9996C116.937 28.7614 114.557 30.9996 111.621 30.9996H6.37801C3.44252 30.9996 1.06282 28.7614 1.06282 25.9996V5.99958C1.06282 3.2383 3.44252 0.999584 6.37801 0.999584Z" fill="#FFA740"/>
<path fill-rule="evenodd" clip-rule="evenodd" d="M28.2914 13.7717C28.2942 13.8206 28.2905 13.8706 28.2781 13.9195L27.1678 18.32C27.1119 18.541 26.9113 18.6975 26.6808 18.6985L20.0191 18.7319C20.0183 18.7319 20.0173 18.7319 20.0166 18.7319H13.3548C13.1231 18.7319 12.9211 18.576 12.8651 18.3528L11.7548 13.9362C11.742 13.8856 11.7384 13.834 11.7415 13.7835C11.3121 13.6496 10.9996 13.2518 10.9996 12.7824C10.9996 12.2028 11.475 11.7319 12.0595 11.7319C12.6439 11.7319 13.1193 12.2028 13.1193 12.7824C13.1193 13.1082 12.9685 13.3996 12.7324 13.5926L14.1224 14.9803C14.4737 15.3303 14.9612 15.5324 15.46 15.5324C16.0497 15.5324 16.6121 15.2544 16.9661 14.7894L19.2506 11.7905C19.0587 11.6001 18.9398 11.3383 18.9398 11.0485C18.9398 10.4695 19.4153 9.99854 19.9996 9.99854C20.5841 9.99854 21.0595 10.4695 21.0595 11.0485C21.0595 11.3297 20.947 11.5846 20.7651 11.7733C20.7657 11.7743 20.7664 11.7749 20.767 11.776L23.0349 14.7829C23.3889 15.2518 23.9532 15.5324 24.5446 15.5324C25.0479 15.5324 25.5213 15.3372 25.8772 14.9846L27.276 13.6002C27.0349 13.4066 26.88 13.112 26.88 12.7824C26.88 12.2028 27.3554 11.7319 27.9399 11.7319C28.5242 11.7319 28.9996 12.2028 28.9996 12.7824C28.9996 13.2383 28.7032 13.627 28.2914 13.7717ZM27.0595 20.2991C27.0595 20.0227 26.8336 19.7985 26.5548 19.7985H13.5006C13.2219 19.7985 12.9959 20.0227 12.9959 20.2991V21.4985C12.9959 21.7749 13.2219 21.9985 13.5006 21.9985H26.5548C26.8336 21.9985 27.0595 21.7749 27.0595 21.4985V20.2991Z" fill="white"/>
<path d="M39.2978 21.168C38.5791 21.168 37.9444 21.0467 37.3938 20.804C36.8431 20.552 36.4091 20.1973 36.0918 19.74C35.7744 19.2733 35.6111 18.7087 35.6018 18.046H37.4918C37.5104 18.5033 37.6738 18.8907 37.9818 19.208C38.2991 19.516 38.7331 19.67 39.2838 19.67C39.7598 19.67 40.1378 19.558 40.4178 19.334C40.6978 19.1007 40.8378 18.7927 40.8378 18.41C40.8378 18.0087 40.7118 17.696 40.4598 17.472C40.2171 17.248 39.8904 17.066 39.4798 16.926C39.0691 16.786 38.6304 16.6367 38.1638 16.478C37.4078 16.2167 36.8291 15.8807 36.4278 15.47C36.0358 15.0593 35.8398 14.5133 35.8398 13.832C35.8304 13.2533 35.9658 12.7587 36.2458 12.348C36.5351 11.928 36.9271 11.606 37.4218 11.382C37.9164 11.1487 38.4858 11.032 39.1298 11.032C39.7831 11.032 40.3571 11.1487 40.8518 11.382C41.3558 11.6153 41.7478 11.942 42.0278 12.362C42.3171 12.782 42.4711 13.2813 42.4898 13.86H40.5718C40.5624 13.5147 40.4271 13.2113 40.1658 12.95C39.9138 12.6793 39.5591 12.544 39.1018 12.544C38.7098 12.5347 38.3784 12.6327 38.1078 12.838C37.8464 13.034 37.7158 13.3233 37.7158 13.706C37.7158 14.0327 37.8184 14.294 38.0238 14.49C38.2291 14.6767 38.5091 14.8353 38.8638 14.966C39.2184 15.0967 39.6244 15.2367 40.0818 15.386C40.5671 15.554 41.0104 15.75 41.4118 15.974C41.8131 16.198 42.1351 16.4967 42.3778 16.87C42.6204 17.234 42.7418 17.7053 42.7418 18.284C42.7418 18.7973 42.6111 19.2733 42.3498 19.712C42.0884 20.1507 41.7011 20.5053 41.1878 20.776C40.6744 21.0373 40.0444 21.168 39.2978 21.168ZM46.7273 21.168C45.8593 21.168 45.1873 20.8973 44.7113 20.356C44.2446 19.8147 44.0113 19.0213 44.0113 17.976V14.056H45.7893V17.808C45.7893 18.4053 45.9106 18.8627 46.1533 19.18C46.3959 19.4973 46.7786 19.656 47.3013 19.656C47.7959 19.656 48.2019 19.4787 48.5193 19.124C48.8459 18.7693 49.0093 18.2747 49.0093 17.64V14.056H50.8013V21H49.2193L49.0793 19.824C48.8646 20.2347 48.5519 20.5613 48.1413 20.804C47.7399 21.0467 47.2686 21.168 46.7273 21.168ZM55.4408 18.928C55.1048 18.928 54.7922 18.8907 54.5028 18.816L53.9848 19.334C54.1435 19.418 54.3582 19.488 54.6288 19.544C54.8995 19.6 55.3382 19.656 55.9448 19.712C56.8688 19.796 57.5408 20.0153 57.9608 20.37C58.3808 20.7247 58.5908 21.2147 58.5908 21.84C58.5908 22.2507 58.4788 22.638 58.2548 23.002C58.0308 23.3753 57.6855 23.674 57.2188 23.898C56.7522 24.1313 56.1548 24.248 55.4268 24.248C54.4375 24.248 53.6395 24.0613 53.0328 23.688C52.4262 23.324 52.1228 22.7733 52.1228 22.036C52.1228 21.4107 52.4262 20.8693 53.0328 20.412C52.8462 20.328 52.6828 20.2393 52.5428 20.146C52.4122 20.0527 52.2955 19.9547 52.1928 19.852V19.53L53.4108 18.242C52.8695 17.766 52.5988 17.1547 52.5988 16.408C52.5988 15.9413 52.7108 15.5167 52.9348 15.134C53.1682 14.7513 53.4948 14.448 53.9148 14.224C54.3348 14 54.8435 13.888 55.4408 13.888C55.8328 13.888 56.1968 13.944 56.5328 14.056H59.1648V15.148L57.9748 15.232C58.1615 15.5867 58.2548 15.9787 58.2548 16.408C58.2548 16.8747 58.1428 17.2993 57.9188 17.682C57.6948 18.0647 57.3682 18.368 56.9388 18.592C56.5188 18.816 56.0195 18.928 55.4408 18.928ZM55.4408 17.556C55.8048 17.556 56.1035 17.458 56.3368 17.262C56.5795 17.066 56.7008 16.786 56.7008 16.422C56.7008 16.058 56.5795 15.778 56.3368 15.582C56.1035 15.386 55.8048 15.288 55.4408 15.288C55.0582 15.288 54.7502 15.386 54.5168 15.582C54.2835 15.778 54.1668 16.058 54.1668 16.422C54.1668 16.786 54.2835 17.066 54.5168 17.262C54.7502 17.458 55.0582 17.556 55.4408 17.556ZM53.7608 21.854C53.7608 22.1993 53.9195 22.456 54.2368 22.624C54.5635 22.8013 54.9602 22.89 55.4268 22.89C55.8748 22.89 56.2388 22.7967 56.5188 22.61C56.7988 22.4327 56.9388 22.19 56.9388 21.882C56.9388 21.63 56.8455 21.42 56.6588 21.252C56.4815 21.084 56.1222 20.9813 55.5808 20.944C55.1982 20.916 54.8435 20.874 54.5168 20.818C54.2462 20.9673 54.0502 21.1307 53.9288 21.308C53.8168 21.4853 53.7608 21.6673 53.7608 21.854ZM63.2716 18.928C62.9356 18.928 62.6229 18.8907 62.3336 18.816L61.8156 19.334C61.9742 19.418 62.1889 19.488 62.4596 19.544C62.7302 19.6 63.1689 19.656 63.7756 19.712C64.6996 19.796 65.3716 20.0153 65.7916 20.37C66.2116 20.7247 66.4216 21.2147 66.4216 21.84C66.4216 22.2507 66.3096 22.638 66.0856 23.002C65.8616 23.3753 65.5162 23.674 65.0496 23.898C64.5829 24.1313 63.9856 24.248 63.2576 24.248C62.2682 24.248 61.4702 24.0613 60.8636 23.688C60.2569 23.324 59.9536 22.7733 59.9536 22.036C59.9536 21.4107 60.2569 20.8693 60.8636 20.412C60.6769 20.328 60.5136 20.2393 60.3736 20.146C60.2429 20.0527 60.1262 19.9547 60.0236 19.852V19.53L61.2416 18.242C60.7002 17.766 60.4296 17.1547 60.4296 16.408C60.4296 15.9413 60.5416 15.5167 60.7656 15.134C60.9989 14.7513 61.3256 14.448 61.7456 14.224C62.1656 14 62.6742 13.888 63.2716 13.888C63.6636 13.888 64.0276 13.944 64.3636 14.056H66.9956V15.148L65.8056 15.232C65.9922 15.5867 66.0856 15.9787 66.0856 16.408C66.0856 16.8747 65.9736 17.2993 65.7496 17.682C65.5256 18.0647 65.1989 18.368 64.7696 18.592C64.3496 18.816 63.8502 18.928 63.2716 18.928ZM63.2716 17.556C63.6356 17.556 63.9342 17.458 64.1676 17.262C64.4102 17.066 64.5316 16.786 64.5316 16.422C64.5316 16.058 64.4102 15.778 64.1676 15.582C63.9342 15.386 63.6356 15.288 63.2716 15.288C62.8889 15.288 62.5809 15.386 62.3476 15.582C62.1142 15.778 61.9976 16.058 61.9976 16.422C61.9976 16.786 62.1142 17.066 62.3476 17.262C62.5809 17.458 62.8889 17.556 63.2716 17.556ZM61.5916 21.854C61.5916 22.1993 61.7502 22.456 62.0676 22.624C62.3942 22.8013 62.7909 22.89 63.2576 22.89C63.7056 22.89 64.0696 22.7967 64.3496 22.61C64.6296 22.4327 64.7696 22.19 64.7696 21.882C64.7696 21.63 64.6762 21.42 64.4896 21.252C64.3122 21.084 63.9529 20.9813 63.4116 20.944C63.0289 20.916 62.6742 20.874 62.3476 20.818C62.0769 20.9673 61.8809 21.1307 61.7596 21.308C61.6476 21.4853 61.5916 21.6673 61.5916 21.854ZM71.2628 21.168C70.5628 21.168 69.9422 21.0187 69.4008 20.72C68.8595 20.4213 68.4348 20.0013 68.1268 19.46C67.8188 18.9187 67.6648 18.2933 67.6648 17.584C67.6648 16.8653 67.8142 16.226 68.1128 15.666C68.4208 15.106 68.8408 14.672 69.3728 14.364C69.9142 14.0467 70.5488 13.888 71.2768 13.888C71.9582 13.888 72.5602 14.0373 73.0828 14.336C73.6055 14.6347 74.0115 15.0453 74.3008 15.568C74.5995 16.0813 74.7488 16.6553 74.7488 17.29C74.7488 17.3927 74.7442 17.5 74.7348 17.612C74.7348 17.724 74.7302 17.8407 74.7208 17.962H69.4428C69.4802 18.5033 69.6668 18.928 70.0028 19.236C70.3482 19.544 70.7635 19.698 71.2488 19.698C71.6128 19.698 71.9162 19.6187 72.1588 19.46C72.4108 19.292 72.5975 19.0773 72.7188 18.816H74.5388C74.4082 19.2547 74.1888 19.656 73.8808 20.02C73.5822 20.3747 73.2088 20.6547 72.7608 20.86C72.3222 21.0653 71.8228 21.168 71.2628 21.168ZM71.2768 15.344C70.8382 15.344 70.4508 15.47 70.1148 15.722C69.7788 15.9647 69.5642 16.338 69.4708 16.842H72.9288C72.9008 16.3847 72.7328 16.0207 72.4248 15.75C72.1168 15.4793 71.7342 15.344 71.2768 15.344ZM78.986 21.168C78.37 21.168 77.8287 21.07 77.362 20.874C76.8953 20.6687 76.522 20.3887 76.242 20.034C75.962 19.6793 75.794 19.2687 75.738 18.802H77.544C77.6 19.0727 77.7493 19.306 77.992 19.502C78.244 19.6887 78.566 19.782 78.958 19.782C79.35 19.782 79.6347 19.7027 79.812 19.544C79.9987 19.3853 80.092 19.2033 80.092 18.998C80.092 18.6993 79.9613 18.4987 79.7 18.396C79.4387 18.284 79.0747 18.1767 78.608 18.074C78.3093 18.0087 78.006 17.9293 77.698 17.836C77.39 17.7427 77.1053 17.626 76.844 17.486C76.592 17.3367 76.3867 17.15 76.228 16.926C76.0693 16.6927 75.99 16.408 75.99 16.072C75.99 15.456 76.2327 14.938 76.718 14.518C77.2127 14.098 77.9033 13.888 78.79 13.888C79.6113 13.888 80.2647 14.0793 80.75 14.462C81.2447 14.8447 81.5387 15.372 81.632 16.044H79.938C79.8353 15.5307 79.448 15.274 78.776 15.274C78.44 15.274 78.1787 15.3393 77.992 15.47C77.8147 15.6007 77.726 15.764 77.726 15.96C77.726 16.1653 77.8613 16.3287 78.132 16.45C78.4027 16.5713 78.762 16.6833 79.21 16.786C79.6953 16.898 80.1387 17.024 80.54 17.164C80.9507 17.2947 81.2773 17.4953 81.52 17.766C81.7627 18.0273 81.884 18.4053 81.884 18.9C81.8933 19.3293 81.7813 19.7167 81.548 20.062C81.3147 20.4073 80.9787 20.678 80.54 20.874C80.1013 21.07 79.5833 21.168 78.986 21.168ZM86.2067 21C85.4787 21 84.8954 20.8227 84.4567 20.468C84.0181 20.1133 83.7987 19.4833 83.7987 18.578V15.554H82.6087V14.056H83.7987L84.0087 12.194H85.5907V14.056H87.4667V15.554H85.5907V18.592C85.5907 18.928 85.6607 19.1613 85.8007 19.292C85.9501 19.4133 86.2021 19.474 86.5567 19.474H87.4247V21H86.2067ZM92.0616 21.168C91.3616 21.168 90.7409 21.0187 90.1996 20.72C89.6582 20.4213 89.2336 20.0013 88.9256 19.46C88.6176 18.9187 88.4636 18.2933 88.4636 17.584C88.4636 16.8653 88.6129 16.226 88.9116 15.666C89.2196 15.106 89.6396 14.672 90.1716 14.364C90.7129 14.0467 91.3476 13.888 92.0756 13.888C92.7569 13.888 93.3589 14.0373 93.8816 14.336C94.4042 14.6347 94.8102 15.0453 95.0996 15.568C95.3982 16.0813 95.5476 16.6553 95.5476 17.29C95.5476 17.3927 95.5429 17.5 95.5336 17.612C95.5336 17.724 95.5289 17.8407 95.5196 17.962H90.2416C90.2789 18.5033 90.4656 18.928 90.8016 19.236C91.1469 19.544 91.5622 19.698 92.0476 19.698C92.4116 19.698 92.7149 19.6187 92.9576 19.46C93.2096 19.292 93.3962 19.0773 93.5176 18.816H95.3376C95.2069 19.2547 94.9876 19.656 94.6796 20.02C94.3809 20.3747 94.0076 20.6547 93.5596 20.86C93.1209 21.0653 92.6216 21.168 92.0616 21.168ZM92.0756 15.344C91.6369 15.344 91.2496 15.47 90.9136 15.722C90.5776 15.9647 90.3629 16.338 90.2696 16.842H93.7276C93.6996 16.3847 93.5316 16.0207 93.2236 15.75C92.9156 15.4793 92.5329 15.344 92.0756 15.344ZM100.107 21.168C99.4534 21.168 98.8701 21.0093 98.3568 20.692C97.8434 20.3747 97.4374 19.9407 97.1388 19.39C96.8401 18.8393 96.6908 18.214 96.6908 17.514C96.6908 16.814 96.8401 16.1933 97.1388 15.652C97.4374 15.1013 97.8434 14.672 98.3568 14.364C98.8701 14.0467 99.4534 13.888 100.107 13.888C100.629 13.888 101.087 13.986 101.479 14.182C101.871 14.378 102.188 14.6533 102.431 15.008V10.92H104.223V21H102.627L102.431 20.006C102.207 20.314 101.908 20.5847 101.535 20.818C101.171 21.0513 100.695 21.168 100.107 21.168ZM100.485 19.6C101.063 19.6 101.535 19.4087 101.899 19.026C102.272 18.634 102.459 18.1347 102.459 17.528C102.459 16.9213 102.272 16.4267 101.899 16.044C101.535 15.652 101.063 15.456 100.485 15.456C99.9154 15.456 99.4441 15.6473 99.0708 16.03C98.6974 16.4127 98.5108 16.9073 98.5108 17.514C98.5108 18.1207 98.6974 18.62 99.0708 19.012C99.4441 19.404 99.9154 19.6 100.485 19.6Z" fill="white"/>
</svg>
