<svg width="150" height="150" viewBox="0 0 150 150" fill="none" xmlns="http://www.w3.org/2000/svg">
<rect width="150" height="150" rx="10" fill="#FA748F"/>
<path d="M41.8333 116.667C40.7282 116.667 39.6684 116.228 38.887 115.446C38.1056 114.665 37.6666 113.605 37.6666 112.5V37.4999C37.6666 36.3949 38.1056 35.335 38.887 34.5536C39.6684 33.7722 40.7282 33.3333 41.8333 33.3333H100.167C101.272 33.3333 102.332 33.7722 103.113 34.5536C103.894 35.335 104.333 36.3949 104.333 37.4999V49.9999H96V41.6666H46V108.333H96V99.9999H104.333V112.5C104.333 113.605 103.894 114.665 103.113 115.446C102.332 116.228 101.272 116.667 100.167 116.667H41.8333ZM96 91.6666V79.1666H66.8333V70.8333H96V58.3333L116.833 74.9999L96 91.6666Z" fill="white"/>
</svg>
