<svg width="150" height="150" viewBox="0 0 150 150" fill="none" xmlns="http://www.w3.org/2000/svg">
<rect width="150" height="150" rx="10" fill="#D9D9D9" fill-opacity="0.5"/>
<path d="M41.6667 87.4999H50V108.333H100V41.6666H50V62.4999H41.6667V37.4999C41.6667 36.3949 42.1057 35.335 42.8871 34.5536C43.6685 33.7722 44.7283 33.3333 45.8333 33.3333H104.167C105.272 33.3333 106.332 33.7722 107.113 34.5536C107.894 35.335 108.333 36.3949 108.333 37.4999V112.5C108.333 113.605 107.894 114.665 107.113 115.446C106.332 116.228 105.272 116.667 104.167 116.667H45.8333C44.7283 116.667 43.6685 116.228 42.8871 115.446C42.1057 114.665 41.6667 113.605 41.6667 112.5V87.4999ZM66.6667 70.8333V58.3333L87.5 74.9999L66.6667 91.6666V79.1666H33.3333V70.8333H66.6667Z" fill="black"/>
</svg>
