<svg width="25" height="25" viewBox="0 0 25 25" fill="none" xmlns="http://www.w3.org/2000/svg">
<path d="M22.7273 18.1818V7.95455H6.81818V18.1818H22.7273ZM22.7273 2.27273C23.9773 2.27273 25 3.29545 25 4.54545V18.1818C25 19.4318 23.9773 20.4545 22.7273 20.4545H6.81818C6.21542 20.4545 5.63734 20.2151 5.21112 19.7889C4.7849 19.3627 4.54545 18.7846 4.54545 18.1818V4.54545C4.54545 3.29545 5.56818 2.27273 6.81818 2.27273H7.95455V0H10.2273V2.27273H19.3182V0H21.5909V2.27273H22.7273ZM2.27273 22.7273H18.1818V25H2.27273C1.66996 25 1.09189 24.7606 0.665666 24.3343C0.239447 23.9081 0 23.33 0 22.7273V9.09091H2.27273V22.7273Z" fill="white"/>
</svg>
