<svg width="30" height="30" viewBox="0 0 30 30" fill="none" xmlns="http://www.w3.org/2000/svg">
<rect x="1" y="2" width="28" height="3" fill="white"/>
<path d="M17.1587 14.5449L15.8528 10.5832C15.5952 9.8056 14.4048 9.8056 14.156 10.5832L12.8413 14.5449H8.88801C8.02629 14.5449 7.67095 15.5681 8.37276 16.0265L11.6064 18.1547L10.3361 21.9282C10.0784 22.6894 11.0379 23.3033 11.7219 22.8204L15 20.5285L18.2781 22.8286C18.9621 23.3115 19.9216 22.6976 19.6639 21.9364L18.3936 18.1629L21.6272 16.0347C22.3291 15.5681 21.9737 14.5531 21.112 14.5531H17.1587V14.5449Z" fill="white"/>
<rect x="1" y="1" width="28" height="28" rx="4" stroke="white" stroke-width="2"/>
</svg>
