<svg width="30" height="30" viewBox="0 0 30 30" fill="none" xmlns="http://www.w3.org/2000/svg">
<path d="M12.888 0.675027C13.487 0.238116 14.232 0 15 0C15.768 0 16.513 0.238116 17.112 0.675027L28.737 9.1545C29.1314 9.44215 29.4496 9.80669 29.6682 10.2212C29.8868 10.6356 30.0002 11.0895 30 11.5492V26.9317C30 27.7454 29.6444 28.5259 29.0115 29.1013C28.3786 29.6767 27.5201 30 26.625 30H22.125C21.2299 30 20.3714 29.6767 19.7385 29.1013C19.1056 28.5259 18.75 27.7454 18.75 26.9317V18.7495C18.75 18.4782 18.6315 18.2181 18.4205 18.0263C18.2095 17.8345 17.9234 17.7267 17.625 17.7267H12.375C12.0766 17.7267 11.7905 17.8345 11.5795 18.0263C11.3685 18.2181 11.25 18.4782 11.25 18.7495V26.9317C11.25 27.7454 10.8944 28.5259 10.2615 29.1013C9.62855 29.6767 8.77011 30 7.875 30H3.375C2.47989 30 1.62145 29.6767 0.988515 29.1013C0.35558 28.5259 0 27.7454 0 26.9317V11.5492C0 10.6191 0.465 9.73817 1.263 9.15587L12.888 0.67639V0.675027ZM15.7035 2.27055C15.5039 2.12515 15.2558 2.04591 15 2.04591C14.7442 2.04591 14.4961 2.12515 14.2965 2.27055L2.6715 10.75C2.54002 10.8458 2.43388 10.9672 2.36092 11.1053C2.28797 11.2434 2.25006 11.3946 2.25 11.5478V26.9303C2.25 27.4962 2.754 27.9531 3.375 27.9531H7.875C8.17337 27.9531 8.45952 27.8453 8.67049 27.6535C8.88147 27.4617 9 27.2016 9 26.9303V18.7481C9 17.9344 9.35558 17.1539 9.98851 16.5785C10.6215 16.0031 11.4799 15.6798 12.375 15.6798H17.625C18.0683 15.6798 18.5073 15.7592 18.9169 15.9135C19.3265 16.0678 19.6986 16.2939 20.012 16.579C20.3254 16.864 20.574 17.2024 20.7435 17.5749C20.913 17.9473 21.0002 18.3464 21 18.7495V26.9317C21 27.4976 21.504 27.9545 22.125 27.9545H26.625C26.9234 27.9545 27.2095 27.8467 27.4205 27.6549C27.6315 27.4631 27.75 27.2029 27.75 26.9317V11.5492C27.7501 11.3961 27.7124 11.2449 27.6398 11.1069C27.5671 10.9688 27.4612 10.8473 27.33 10.7514L15.705 2.27192L15.7035 2.27055Z" fill="white"/>
</svg>
