<svg width="30" height="30" viewBox="0 0 30 30" fill="none" xmlns="http://www.w3.org/2000/svg">
<path d="M15 0C9.74318 0 5.45455 4.10217 5.45455 9.13043C5.45455 12.2335 7.10455 14.9791 9.58773 16.6304C3.99 18.72 0 23.9374 0 30H2.72727C2.72727 24.2635 7.07864 19.4687 12.7841 18.4643L13.6364 20.8696H16.3636L17.2159 18.4643C22.9214 19.4687 27.2727 24.2635 27.2727 30H30C30 23.9374 26.01 18.72 20.4123 16.6304C22.8941 14.9791 24.5455 12.2335 24.5455 9.13043C24.5455 4.10217 20.2568 0 15 0ZM15 2.6087C18.7814 2.6087 21.8182 5.51348 21.8182 9.13043C21.8182 12.7474 18.7814 15.6522 15 15.6522C11.2186 15.6522 8.18182 12.7474 8.18182 9.13043C8.18182 5.51348 11.2186 2.6087 15 2.6087ZM13.6364 22.1739L12.2727 30H17.7273L16.3636 22.1739H13.6364Z" fill="white"/>
</svg>
