<svg width="34" height="32" viewBox="0 0 34 32" fill="none" xmlns="http://www.w3.org/2000/svg">
<path d="M26.8447 27.0348C28.9235 27.2148 31.0149 26.931 32.9839 26.2017C33.059 25.2198 32.8703 24.2354 32.4396 23.3624C32.0089 22.4894 31.3537 21.7634 30.5499 21.2685C29.7461 20.7737 28.8265 20.5301 27.8975 20.566C26.9685 20.6018 26.0681 20.9157 25.3004 21.4713M26.843 27.033L26.8447 27.0869C26.8447 27.4782 26.825 27.8643 26.784 28.2452C23.806 30.0558 20.4316 31.0058 16.9983 31C13.4372 31 10.0944 29.9982 7.21267 28.2452C7.17048 27.8427 7.1502 27.438 7.15195 27.033M26.8447 27.033C26.8383 25.0619 26.3027 23.1335 25.3004 21.473C24.4108 19.9944 23.1837 18.7774 21.7325 17.9348C20.2813 17.0921 18.653 16.651 16.9983 16.6522C15.3439 16.6513 13.7159 17.0925 12.265 17.9352C10.8142 18.7778 9.58729 19.9946 8.69783 21.473C7.93016 20.918 7.02992 20.6045 6.10121 20.5689C5.1725 20.5333 4.25324 20.777 3.44972 21.2718C2.6462 21.7666 1.99124 22.4923 1.56057 23.365C1.1299 24.2377 0.941111 25.2218 1.01602 26.2035C2.9835 26.9368 5.0754 27.2196 7.15359 27.033C7.15949 25.0621 7.69452 23.1337 8.69619 21.473M21.9215 6.21739C21.9215 7.60112 21.4028 8.92819 20.4795 9.90664C19.5563 10.8851 18.304 11.4348 16.9983 11.4348C15.6926 11.4348 14.4404 10.8851 13.5171 9.90664C12.5938 8.92819 12.0751 7.60112 12.0751 6.21739C12.0751 4.83365 12.5938 3.50659 13.5171 2.52814C14.4404 1.54969 15.6926 1 16.9983 1C18.304 1 19.5563 1.54969 20.4795 2.52814C21.4028 3.50659 21.9215 4.83365 21.9215 6.21739ZM31.7679 11.4348C31.7679 11.9486 31.6723 12.4575 31.4868 12.9322C31.3012 13.407 31.0293 13.8384 30.6864 14.2017C30.3435 14.5651 29.9365 14.8533 29.4885 15.05C29.0405 15.2466 28.5604 15.3478 28.0755 15.3478C27.5906 15.3478 27.1104 15.2466 26.6625 15.05C26.2145 14.8533 25.8074 14.5651 25.4646 14.2017C25.1217 13.8384 24.8497 13.407 24.6641 12.9322C24.4786 12.4575 24.3831 11.9486 24.3831 11.4348C24.3831 10.397 24.7721 9.40167 25.4646 8.66784C26.157 7.934 27.0962 7.52173 28.0755 7.52173C29.0548 7.52173 29.9939 7.934 30.6864 8.66784C31.3788 9.40167 31.7679 10.397 31.7679 11.4348ZM9.61354 11.4348C9.61354 11.9486 9.51803 12.4575 9.33247 12.9322C9.14691 13.407 8.87493 13.8384 8.53206 14.2017C8.1892 14.5651 7.78215 14.8533 7.33417 15.05C6.88619 15.2466 6.40605 15.3478 5.92115 15.3478C5.43626 15.3478 4.95612 15.2466 4.50814 15.05C4.06016 14.8533 3.65311 14.5651 3.31024 14.2017C2.96737 13.8384 2.69539 13.407 2.50983 12.9322C2.32427 12.4575 2.22877 11.9486 2.22877 11.4348C2.22877 10.397 2.61779 9.40167 3.31024 8.66784C4.0027 7.934 4.94187 7.52173 5.92115 7.52173C6.90044 7.52173 7.83961 7.934 8.53206 8.66784C9.22452 9.40167 9.61354 10.397 9.61354 11.4348Z" stroke="white" stroke-width="1.5" stroke-linecap="round" stroke-linejoin="round"/>
</svg>
