<svg width="50" height="50" viewBox="0 0 50 50" fill="none" xmlns="http://www.w3.org/2000/svg">
<path d="M28.3144 25L37.5917 15.7227C38.032 15.2832 38.2797 14.6867 38.2802 14.0646C38.2808 13.4425 38.0342 12.8456 37.5946 12.4053C37.1551 11.965 36.5587 11.7173 35.9366 11.7168C35.3144 11.7162 34.7176 11.9629 34.2773 12.4024L24.9999 21.6797L15.7226 12.4024C15.2823 11.9621 14.6851 11.7147 14.0624 11.7147C13.4397 11.7147 12.8426 11.9621 12.4023 12.4024C11.962 12.8427 11.7146 13.4399 11.7146 14.0625C11.7146 14.6852 11.962 15.2824 12.4023 15.7227L21.6796 25L12.4023 34.2774C11.962 34.7177 11.7146 35.3149 11.7146 35.9375C11.7146 36.5602 11.962 37.1574 12.4023 37.5977C12.8426 38.038 13.4397 38.2854 14.0624 38.2854C14.6851 38.2854 15.2823 38.038 15.7226 37.5977L24.9999 28.3203L34.2773 37.5977C34.7176 38.038 35.3147 38.2854 35.9374 38.2854C36.5601 38.2854 37.1573 38.038 37.5976 37.5977C38.0379 37.1574 38.2852 36.5602 38.2852 35.9375C38.2852 35.3149 38.0379 34.7177 37.5976 34.2774L28.3144 25Z" fill="black"/>
</svg>
