<svg width="30" height="30" viewBox="0 0 30 30" fill="none" xmlns="http://www.w3.org/2000/svg">
<path d="M16.125 13.125C15.375 12.9375 14.625 12.5625 14.0625 12C13.5 11.8125 13.3125 11.25 13.3125 10.875C13.3125 10.5 13.5 9.9375 13.875 9.75C14.4375 9.375 15 9 15.5625 9.1875C16.6875 9.1875 17.625 9.75 18.1875 10.5L19.875 8.25C19.3125 7.6875 18.75 7.3125 18.1875 6.9375C17.625 6.5625 16.875 6.375 16.125 6.375V3.75H13.875V6.375C12.9375 6.5625 12 7.125 11.25 7.875C10.5 8.8125 9.9375 9.9375 10.125 11.0625C10.125 12.1875 10.5 13.3125 11.25 14.0625C12.1875 15 13.5 15.5625 14.625 16.125C15.1875 16.3125 15.9375 16.6875 16.5 17.0625C16.875 17.4375 17.0625 18 17.0625 18.5625C17.0625 19.125 16.875 19.6875 16.5 20.25C15.9375 20.8125 15.1875 21 14.625 21C13.875 21 12.9375 20.8125 12.375 20.25C11.8125 19.875 11.25 19.3125 10.875 18.75L9 20.8125C9.5625 21.5625 10.125 22.125 10.875 22.6875C11.8125 23.25 12.9375 23.8125 14.0625 23.8125V26.25H16.125V23.4375C17.25 23.25 18.1875 22.6875 18.9375 21.9375C19.875 21 20.4375 19.5 20.4375 18.1875C20.4375 17.0625 20.0625 15.75 19.125 15C18.1875 14.0625 17.25 13.5 16.125 13.125V13.125ZM15 0C6.75 0 0 6.75 0 15C0 23.25 6.75 30 15 30C23.25 30 30 23.25 30 15C30 6.75 23.25 0 15 0ZM15 27.9375C7.875 27.9375 2.0625 22.125 2.0625 15C2.0625 7.875 7.875 2.0625 15 2.0625C22.125 2.0625 27.9375 7.875 27.9375 15C27.9375 22.125 22.125 27.9375 15 27.9375V27.9375Z" fill="white"/>
</svg>
