<svg width="30" height="30" viewBox="0 0 30 30" fill="none" xmlns="http://www.w3.org/2000/svg">
<path d="M26.6667 27V10.5H3.33333V27H26.6667ZM21.6667 0H25V3H26.6667C27.5507 3 28.3986 3.31607 29.0237 3.87868C29.6488 4.44129 30 5.20435 30 6V27C30 27.7956 29.6488 28.5587 29.0237 29.1213C28.3986 29.6839 27.5507 30 26.6667 30H3.33333C2.44928 30 1.60143 29.6839 0.976311 29.1213C0.351189 28.5587 0 27.7956 0 27V6C0 4.335 1.48333 3 3.33333 3H5V0H8.33333V3H21.6667V0ZM6.66667 13.5H10V16.5H6.66667V13.5ZM20 13.5H23.3333V16.5H20V13.5ZM13.3333 19.5H16.6667V22.5H13.3333V19.5ZM20 19.5H23.3333V22.5H20V19.5Z" fill="white"/>
</svg>
