<svg width="30" height="30" viewBox="0 0 30 30" fill="none" xmlns="http://www.w3.org/2000/svg">
<path d="M16.05 18.075L24.525 9.6L22.425 7.425L16.05 13.8L12.825 10.65L10.725 12.75L16.05 18.075ZM9 24C8.175 24 7.469 23.7065 6.882 23.1195C6.294 22.5315 6 21.825 6 21V3C6 2.175 6.294 1.4685 6.882 0.8805C7.469 0.2935 8.175 0 9 0H27C27.825 0 28.5315 0.2935 29.1195 0.8805C29.7065 1.4685 30 2.175 30 3V21C30 21.825 29.7065 22.5315 29.1195 23.1195C28.5315 23.7065 27.825 24 27 24H9ZM9 21H27V3H9V21ZM3 30C2.175 30 1.469 29.7065 0.882 29.1195C0.294 28.5315 0 27.825 0 27V6H3V27H24V30H3ZM9 3V21V3Z" fill="white"/>
</svg>
