<svg width="25" height="25" viewBox="0 0 25 25" fill="none" xmlns="http://www.w3.org/2000/svg">
<path d="M0 0V23.2143H15.3846V21.4286H1.92308V1.78571H11.5385V7.14286H17.3077V8.92857H19.2308V5.89286L18.9423 5.625L13.1731 0.267857L12.8846 0H0V0ZM13.4615 3.03571L15.9615 5.35714H13.4615V3.03571ZM3.84615 8.92857V10.7143H15.3846V8.92857H3.84615ZM20.1923 10.7143V12.5C18.5577 12.7679 17.3077 14.0179 17.3077 15.625C17.3077 17.4107 18.75 18.75 20.6731 18.75H21.6346C22.4038 18.75 23.0769 19.375 23.0769 20.0893C23.0769 20.8036 22.4038 21.4286 21.6346 21.4286H18.2692V23.2143H20.1923V25H22.1154V23.2143C23.75 22.9464 25 21.6964 25 20.0893C25 18.3036 23.5577 16.9643 21.6346 16.9643H20.6731C19.9038 16.9643 19.2308 16.3393 19.2308 15.625C19.2308 14.9107 19.9038 14.2857 20.6731 14.2857H24.0385V12.5H22.1154V10.7143H20.1923ZM3.84615 13.3929V15.1786H10.5769V13.3929H3.84615ZM12.5 13.3929V15.1786H15.3846V13.3929H12.5ZM3.84615 16.9643V18.75H10.5769V16.9643H3.84615ZM12.5 16.9643V18.75H15.3846V16.9643H12.5Z" fill="white"/>
</svg>
