<svg width="30" height="30" viewBox="0 0 30 30" fill="none" xmlns="http://www.w3.org/2000/svg">
<g clip-path="url(#clip0_518_129)">
<path d="M2.8125 1.875C2.56386 1.875 2.3254 1.97377 2.14959 2.14959C1.97377 2.3254 1.875 2.56386 1.875 2.8125V8.4375C1.875 8.68614 1.77623 8.9246 1.60041 9.10041C1.4246 9.27623 1.18614 9.375 0.9375 9.375C0.68886 9.375 0.450403 9.27623 0.274587 9.10041C0.0987721 8.9246 0 8.68614 0 8.4375V2.8125C0 2.06658 0.296316 1.35121 0.823762 0.823762C1.35121 0.296316 2.06658 0 2.8125 0L8.4375 0C8.68614 0 8.9246 0.0987721 9.10041 0.274587C9.27623 0.450403 9.375 0.68886 9.375 0.9375C9.375 1.18614 9.27623 1.4246 9.10041 1.60041C8.9246 1.77623 8.68614 1.875 8.4375 1.875H2.8125ZM20.625 0.9375C20.625 0.68886 20.7238 0.450403 20.8996 0.274587C21.0754 0.0987721 21.3139 0 21.5625 0L27.1875 0C27.9334 0 28.6488 0.296316 29.1762 0.823762C29.7037 1.35121 30 2.06658 30 2.8125V8.4375C30 8.68614 29.9012 8.9246 29.7254 9.10041C29.5496 9.27623 29.3111 9.375 29.0625 9.375C28.8139 9.375 28.5754 9.27623 28.3996 9.10041C28.2238 8.9246 28.125 8.68614 28.125 8.4375V2.8125C28.125 2.56386 28.0262 2.3254 27.8504 2.14959C27.6746 1.97377 27.4361 1.875 27.1875 1.875H21.5625C21.3139 1.875 21.0754 1.77623 20.8996 1.60041C20.7238 1.4246 20.625 1.18614 20.625 0.9375ZM0.9375 20.625C1.18614 20.625 1.4246 20.7238 1.60041 20.8996C1.77623 21.0754 1.875 21.3139 1.875 21.5625V27.1875C1.875 27.4361 1.97377 27.6746 2.14959 27.8504C2.3254 28.0262 2.56386 28.125 2.8125 28.125H8.4375C8.68614 28.125 8.9246 28.2238 9.10041 28.3996C9.27623 28.5754 9.375 28.8139 9.375 29.0625C9.375 29.3111 9.27623 29.5496 9.10041 29.7254C8.9246 29.9012 8.68614 30 8.4375 30H2.8125C2.06658 30 1.35121 29.7037 0.823762 29.1762C0.296316 28.6488 0 27.9334 0 27.1875L0 21.5625C0 21.3139 0.0987721 21.0754 0.274587 20.8996C0.450403 20.7238 0.68886 20.625 0.9375 20.625ZM29.0625 20.625C29.3111 20.625 29.5496 20.7238 29.7254 20.8996C29.9012 21.0754 30 21.3139 30 21.5625V27.1875C30 27.9334 29.7037 28.6488 29.1762 29.1762C28.6488 29.7037 27.9334 30 27.1875 30H21.5625C21.3139 30 21.0754 29.9012 20.8996 29.7254C20.7238 29.5496 20.625 29.3111 20.625 29.0625C20.625 28.8139 20.7238 28.5754 20.8996 28.3996C21.0754 28.2238 21.3139 28.125 21.5625 28.125H27.1875C27.4361 28.125 27.6746 28.0262 27.8504 27.8504C28.0262 27.6746 28.125 27.4361 28.125 27.1875V21.5625C28.125 21.3139 28.2238 21.0754 28.3996 20.8996C28.5754 20.7238 28.8139 20.625 29.0625 20.625ZM5.625 8.4375C5.625 8.18886 5.72377 7.9504 5.89959 7.77459C6.0754 7.59877 6.31386 7.5 6.5625 7.5C6.81114 7.5 7.0496 7.59877 7.22541 7.77459C7.40123 7.9504 7.5 8.18886 7.5 8.4375V21.5625C7.5 21.8111 7.40123 22.0496 7.22541 22.2254C7.0496 22.4012 6.81114 22.5 6.5625 22.5C6.31386 22.5 6.0754 22.4012 5.89959 22.2254C5.72377 22.0496 5.625 21.8111 5.625 21.5625V8.4375ZM9.375 8.4375C9.375 8.18886 9.47377 7.9504 9.64959 7.77459C9.8254 7.59877 10.0639 7.5 10.3125 7.5C10.5611 7.5 10.7996 7.59877 10.9754 7.77459C11.1512 7.9504 11.25 8.18886 11.25 8.4375V21.5625C11.25 21.8111 11.1512 22.0496 10.9754 22.2254C10.7996 22.4012 10.5611 22.5 10.3125 22.5C10.0639 22.5 9.8254 22.4012 9.64959 22.2254C9.47377 22.0496 9.375 21.8111 9.375 21.5625V8.4375ZM13.125 8.4375C13.125 8.18886 13.2238 7.9504 13.3996 7.77459C13.5754 7.59877 13.8139 7.5 14.0625 7.5C14.3111 7.5 14.5496 7.59877 14.7254 7.77459C14.9012 7.9504 15 8.18886 15 8.4375V21.5625C15 21.8111 14.9012 22.0496 14.7254 22.2254C14.5496 22.4012 14.3111 22.5 14.0625 22.5C13.8139 22.5 13.5754 22.4012 13.3996 22.2254C13.2238 22.0496 13.125 21.8111 13.125 21.5625V8.4375ZM16.875 8.4375C16.875 8.18886 16.9738 7.9504 17.1496 7.77459C17.3254 7.59877 17.5639 7.5 17.8125 7.5H19.6875C19.9361 7.5 20.1746 7.59877 20.3504 7.77459C20.5262 7.9504 20.625 8.18886 20.625 8.4375V21.5625C20.625 21.8111 20.5262 22.0496 20.3504 22.2254C20.1746 22.4012 19.9361 22.5 19.6875 22.5H17.8125C17.5639 22.5 17.3254 22.4012 17.1496 22.2254C16.9738 22.0496 16.875 21.8111 16.875 21.5625V8.4375ZM22.5 8.4375C22.5 8.18886 22.5988 7.9504 22.7746 7.77459C22.9504 7.59877 23.1889 7.5 23.4375 7.5C23.6861 7.5 23.9246 7.59877 24.1004 7.77459C24.2762 7.9504 24.375 8.18886 24.375 8.4375V21.5625C24.375 21.8111 24.2762 22.0496 24.1004 22.2254C23.9246 22.4012 23.6861 22.5 23.4375 22.5C23.1889 22.5 22.9504 22.4012 22.7746 22.2254C22.5988 22.0496 22.5 21.8111 22.5 21.5625V8.4375Z" fill="white"/>
</g>
<defs>
<clipPath id="clip0_518_129">
<rect width="30" height="30" fill="white"/>
</clipPath>
</defs>
</svg>
