<svg width="30" height="30" viewBox="0 0 30 30" fill="none" xmlns="http://www.w3.org/2000/svg">
<path d="M3.37934 3.3334e-07C2.48308 3.3334e-07 1.62353 0.355554 0.989785 0.988444C0.356036 1.62133 0 2.47972 0 3.37476V23.6218C0 24.5168 0.356036 25.3752 0.989785 26.0081C1.62353 26.641 2.48308 26.9966 3.37934 26.9966H12.2617L12.7964 24.8607L12.8265 24.7467H3.37934C3.08059 24.7467 2.79407 24.6282 2.58282 24.4172C2.37157 24.2063 2.25289 23.9201 2.25289 23.6218V3.37326C2.25289 3.07491 2.37157 2.78878 2.58282 2.57782C2.79407 2.36686 3.08059 2.24834 3.37934 2.24834H23.6539C23.9526 2.24834 24.2391 2.36686 24.4504 2.57782C24.6616 2.78878 24.7803 3.07491 24.7803 3.37326V12.3471C25.4982 12.0621 26.2717 11.9511 27.0332 12.0171V3.37476C27.0332 2.93145 26.9457 2.49249 26.7758 2.08295C26.6059 1.67341 26.3568 1.30131 26.0429 0.987913C25.7289 0.674519 25.3562 0.425967 24.946 0.256458C24.5359 0.0869487 24.0963 -0.000196691 23.6524 3.3334e-07H3.37633H3.37934ZM18.5548 17.9972H12.3894C12.0907 17.9972 11.8041 18.1157 11.5929 18.3267C11.3816 18.5376 11.263 18.8238 11.263 19.1221C11.263 19.4205 11.3816 19.7066 11.5929 19.9176C11.8041 20.1285 12.0907 20.247 12.3894 20.247H16.3019L18.5548 17.9972ZM8.63458 7.87293C8.63458 8.27073 8.47635 8.65223 8.19468 8.93352C7.91301 9.2148 7.53099 9.37282 7.13266 9.37282C6.73432 9.37282 6.3523 9.2148 6.07063 8.93352C5.78897 8.65223 5.63073 8.27073 5.63073 7.87293C5.63073 7.47514 5.78897 7.09363 6.07063 6.81235C6.3523 6.53106 6.73432 6.37304 7.13266 6.37304C7.53099 6.37304 7.91301 6.53106 8.19468 6.81235C8.47635 7.09363 8.63458 7.47514 8.63458 7.87293ZM12.3894 6.74801C12.0907 6.74801 11.8041 6.86653 11.5929 7.0775C11.3816 7.28846 11.263 7.57459 11.263 7.87293C11.263 8.17128 11.3816 8.45741 11.5929 8.66837C11.8041 8.87933 12.0907 8.99785 12.3894 8.99785H20.65C20.9488 8.99785 21.2353 8.87933 21.4465 8.66837C21.6578 8.45741 21.7765 8.17128 21.7765 7.87293C21.7765 7.57459 21.6578 7.28846 21.4465 7.0775C21.2353 6.86653 20.9488 6.74801 20.65 6.74801H12.3894ZM12.3894 12.3726C12.2415 12.3726 12.095 12.4017 11.9583 12.4582C11.8217 12.5148 11.6975 12.5976 11.5929 12.7021C11.4883 12.8065 11.4053 12.9306 11.3487 13.067C11.2921 13.2035 11.263 13.3498 11.263 13.4975C11.263 13.6453 11.2921 13.7915 11.3487 13.928C11.4053 14.0645 11.4883 14.1885 11.5929 14.293C11.6975 14.3974 11.8217 14.4803 11.9583 14.5368C12.095 14.5934 12.2415 14.6224 12.3894 14.6224H20.65C20.7979 14.6224 20.9444 14.5934 21.0811 14.5368C21.2177 14.4803 21.3419 14.3974 21.4465 14.293C21.5511 14.1885 21.6341 14.0645 21.6907 13.928C21.7473 13.7915 21.7765 13.6453 21.7765 13.4975C21.7765 13.3498 21.7473 13.2035 21.6907 13.067C21.6341 12.9306 21.5511 12.8065 21.4465 12.7021C21.3419 12.5976 21.2177 12.5148 21.0811 12.4582C20.9444 12.4017 20.7979 12.3726 20.65 12.3726H12.3894ZM7.13416 14.9989C7.53249 14.9989 7.91452 14.8409 8.19618 14.5596C8.47785 14.2783 8.63609 13.8968 8.63609 13.499C8.63609 13.1012 8.47785 12.7197 8.19618 12.4384C7.91452 12.1572 7.53249 11.9991 7.13416 11.9991C6.73582 11.9991 6.3538 12.1572 6.07213 12.4384C5.79047 12.7197 5.63223 13.1012 5.63223 13.499C5.63223 13.8968 5.79047 14.2783 6.07213 14.5596C6.3538 14.8409 6.73582 14.9989 7.13416 14.9989ZM8.63609 19.1236C8.63609 19.5214 8.47785 19.9029 8.19618 20.1842C7.91452 20.4655 7.53249 20.6235 7.13416 20.6235C6.73582 20.6235 6.3538 20.4655 6.07213 20.1842C5.79047 19.9029 5.63223 19.5214 5.63223 19.1236C5.63223 18.7258 5.79047 18.3443 6.07213 18.063C6.3538 17.7818 6.73582 17.6237 7.13416 17.6237C7.53249 17.6237 7.91452 17.7818 8.19618 18.063C8.47785 18.3443 8.63609 18.7258 8.63609 19.1236ZM24.181 14.504L15.3167 23.3548C14.7993 23.8711 14.4322 24.5181 14.2548 25.2267L13.5684 27.9715C13.268 29.1669 14.3524 30.2483 15.548 29.9498L18.2965 29.2629C19.0059 29.0861 19.6538 28.7201 20.1709 28.204L29.0323 19.3486C29.6595 18.7022 30.0071 17.8354 29.9999 16.9353C29.9927 16.0352 29.6314 15.1741 28.994 14.5377C28.3566 13.9013 27.4941 13.5408 26.5928 13.5339C25.6915 13.527 24.8236 13.8744 24.1765 14.501L24.181 14.504Z" fill="white"/>
</svg>
