<svg width="32" height="32" viewBox="0 0 32 32" fill="none" xmlns="http://www.w3.org/2000/svg">
<path d="M14.3817 1.38281C14.8767 1.13175 15.4337 1 16 1C16.5663 1 17.1233 1.13175 17.6183 1.38281L30.1433 7.73544C30.403 7.8673 30.6194 8.06016 30.77 8.29403C30.9206 8.52791 31 8.7943 31 9.06563V21.5989C30.9999 22.1417 30.8408 22.6746 30.5392 23.1424C30.2377 23.6101 29.8047 23.9957 29.285 24.2593L17.6183 30.1797C17.1233 30.4307 16.5663 30.5625 16 30.5625C15.4337 30.5625 14.8767 30.4307 14.3817 30.1797L2.715 24.2593C2.19559 23.9959 1.76272 23.6105 1.46119 23.143C1.15966 22.6755 1.00044 22.143 1 21.6004V9.06563C0.999988 8.7943 1.0794 8.52791 1.23003 8.29403C1.38065 8.06016 1.59699 7.8673 1.85667 7.73544L14.3833 1.38281H14.3817Z" stroke="white" stroke-width="2" stroke-linecap="round" stroke-linejoin="round"/>
<path d="M8.5 4.36572L23.5 11.9755V17.3023M6 16.2796L11 18.8243" stroke="white" stroke-width="2" stroke-linecap="round" stroke-linejoin="round"/>
<path d="M1 8.17065L16 15.7804M16 15.7804L31 8.17065M16 15.7804V30.9999" stroke="white" stroke-width="2" stroke-linejoin="round"/>
</svg>
