<svg width="25" height="25" viewBox="0 0 25 25" fill="none" xmlns="http://www.w3.org/2000/svg">
<path d="M3.75 0V2.27273H2.5C1.1125 2.27273 0 3.28409 0 4.54545V20.4545C0 21.0573 0.263392 21.6354 0.732233 22.0616C1.20107 22.4878 1.83696 22.7273 2.5 22.7273H10.125C11.7 24.1364 13.8625 25 16.25 25C21.0875 25 25 21.4432 25 17.0455C25 14.875 24.05 12.9091 22.5 11.4773V4.54545C22.5 3.94269 22.2366 3.36461 21.7678 2.93839C21.2989 2.51217 20.663 2.27273 20 2.27273H18.75V0H16.25V2.27273H6.25V0M2.5 4.54545H20V6.81818H2.5M2.5 9.09091H20V9.85227C18.8625 9.36364 17.5875 9.09091 16.25 9.09091C11.4125 9.09091 7.5 12.6477 7.5 17.0455C7.5 18.2614 7.8 19.4205 8.3375 20.4545H2.5M16.25 11.5341C19.6 11.5341 22.3125 14 22.3125 17.0455C22.3125 20.0909 19.6 22.5568 16.25 22.5568C12.9 22.5568 10.1875 20.0909 10.1875 17.0455C10.1875 14 12.9 11.5341 16.25 11.5341ZM15 13.6364V17.8295L18.9875 19.9205L19.925 18.4432L16.875 16.8409V13.6364H15Z" fill="white"/>
</svg>
