<svg width="30" height="30" viewBox="0 0 30 30" fill="none" xmlns="http://www.w3.org/2000/svg">
<path d="M1.97477e-07 11.4688V4.57667C0.000180468 4.23671 0.0943331 3.90351 0.271914 3.6144C0.449494 3.32528 0.70349 3.09166 1.00545 2.9397L6.46 0.193114C6.71236 0.0661149 6.99061 0 7.27273 0C7.55484 0 7.83309 0.0661149 8.08545 0.193114L13.54 2.9397C13.842 3.09166 14.096 3.32528 14.2735 3.6144C14.4511 3.90351 14.5453 4.23671 14.5455 4.57667V11.4688C14.5456 11.809 14.4516 12.1426 14.274 12.4321C14.0964 12.7216 13.8422 12.9555 13.54 13.1076L8.08545 15.8542C7.83309 15.9812 7.55484 16.0473 7.27273 16.0473C6.99061 16.0473 6.71236 15.9812 6.46 15.8542L1.00545 13.1076C0.703213 12.9555 0.449035 12.7216 0.271435 12.4321C0.0938362 12.1426 -0.000157249 11.809 1.97477e-07 11.4688ZM1.89091 4.92091C1.79717 5.14454 1.79547 5.39651 1.88616 5.62142C1.97685 5.84632 2.15252 6.02575 2.37455 6.12025L6.36364 7.81581V12.6004C6.36364 12.8432 6.45942 13.076 6.6299 13.2477C6.80039 13.4194 7.03162 13.5159 7.27273 13.5159C7.51383 13.5159 7.74506 13.4194 7.91555 13.2477C8.08604 13.076 8.18182 12.8432 8.18182 12.6004V7.81581L12.1709 6.12025C12.388 6.02247 12.5584 5.84291 12.6456 5.62009C12.7327 5.39726 12.7297 5.14891 12.6372 4.92828C12.5447 4.70766 12.37 4.53233 12.1506 4.4399C11.9312 4.34747 11.6846 4.3453 11.4636 4.43384L7.27273 6.21546L3.08 4.43384C2.85794 4.33944 2.60774 4.33772 2.38441 4.42906C2.16109 4.52039 1.98292 4.69731 1.88909 4.92091H1.89091ZM0.985455 23.1289V15.1455L2.80364 16.0611V23.1289C2.80364 23.8888 3.41455 24.5022 4.16727 24.5022H4.63818C4.84683 23.4674 5.4043 22.5371 6.21613 21.8688C7.02796 21.2006 8.04422 20.8355 9.09273 20.8355C10.1412 20.8355 11.1575 21.2006 11.9693 21.8688C12.7812 22.5371 13.3386 23.4674 13.5473 24.5022H15.5473C15.7882 23.3127 16.4884 22.2683 17.4939 21.5987C18.4995 20.9291 19.7279 20.6891 20.9091 20.9317V5.73389C20.9091 5.36968 20.7654 5.02037 20.5097 4.76283C20.254 4.50529 19.9071 4.3606 19.5455 4.3606H16.3564C16.318 3.70584 16.1058 3.07346 15.7418 2.52954H19.5436C21.3018 2.52954 22.7255 3.96509 22.7255 5.73389V8.02272H24.3291C24.8358 8.02273 25.3326 8.16494 25.7636 8.43338C26.1945 8.70183 26.5427 9.08589 26.7691 9.54249L29.7109 15.466C29.9 15.8487 30 16.268 30 16.6946V23.5867C30 24.3151 29.7127 25.0138 29.2012 25.5288C28.6897 26.0439 27.996 26.3333 27.2727 26.3333H24.4545C24.2459 27.3681 23.6884 28.2985 22.8766 28.9667C22.0648 29.6349 21.0485 30 20 30C18.9515 30 17.9352 29.6349 17.1234 28.9667C16.3116 28.2985 15.7541 27.3681 15.5455 26.3333H13.5455C13.3368 27.3681 12.7793 28.2985 11.9675 28.9667C11.1557 29.6349 10.1394 30 9.09091 30C8.0424 30 7.02614 29.6349 6.21431 28.9667C5.40248 28.2985 4.84501 27.3681 4.63636 26.3333H4.16545C3.32158 26.3333 2.51228 25.9957 1.91557 25.3948C1.31886 24.7938 0.983636 23.9788 0.983636 23.1289H0.985455ZM24.4545 24.5022H27.2727C27.5138 24.5022 27.7451 24.4058 27.9156 24.2341C28.086 24.0624 28.1818 23.8295 28.1818 23.5867V17.178H22.7273V21.7557C23.6 22.4148 24.2309 23.3853 24.4545 24.5022ZM27.6218 15.3469L25.1455 10.361C25.0701 10.2088 24.9542 10.0807 24.8106 9.99108C24.6671 9.9015 24.5016 9.85395 24.3327 9.85378H22.7273V15.3469H27.6182H27.6218ZM6.36364 25.4178C6.36364 26.1462 6.65097 26.8448 7.16244 27.3599C7.6739 27.875 8.36759 28.1644 9.09091 28.1644C9.81423 28.1644 10.5079 27.875 11.0194 27.3599C11.5308 26.8448 11.8182 26.1462 11.8182 25.4178C11.8182 24.6893 11.5308 23.9907 11.0194 23.4756C10.5079 22.9606 9.81423 22.6712 9.09091 22.6712C8.36759 22.6712 7.6739 22.9606 7.16244 23.4756C6.65097 23.9907 6.36364 24.6893 6.36364 25.4178ZM20 28.1644C20.7233 28.1644 21.417 27.875 21.9285 27.3599C22.4399 26.8448 22.7273 26.1462 22.7273 25.4178C22.7273 24.6893 22.4399 23.9907 21.9285 23.4756C21.417 22.9606 20.7233 22.6712 20 22.6712C19.2767 22.6712 18.583 22.9606 18.0715 23.4756C17.5601 23.9907 17.2727 24.6893 17.2727 25.4178C17.2727 26.1462 17.5601 26.8448 18.0715 27.3599C18.583 27.875 19.2767 28.1644 20 28.1644Z" fill="white"/>
</svg>
