<svg width="39" height="16" viewBox="0 0 39 16" fill="none" xmlns="http://www.w3.org/2000/svg">
<path fill-rule="evenodd" clip-rule="evenodd" d="M0.32658 8.7629L7.46154 15.6822C7.89686 16.1043 8.60298 16.1043 9.03819 15.6822C9.47363 15.2597 9.47363 14.5753 9.03819 14.1532L3.80639 9.07957L37.8617 9.07957C38.4773 9.07957 38.9765 8.5957 38.9765 7.99838C38.9765 7.40161 38.4773 6.9172 37.8617 6.9172L3.80639 6.9172L9.03808 1.84356C9.47352 1.42204 9.47352 0.737091 9.03808 0.315063C8.82041 0.104296 8.535 -0.00107765 8.24969 -0.00107765C7.96439 -0.00107765 7.67909 0.104296 7.46142 0.315063L0.32658 7.23441C-0.108862 7.6559 -0.108862 8.34085 0.32658 8.7629Z" fill="#0F2137"/>
</svg>
