<svg width="27" height="14" viewBox="0 0 27 14" fill="none" xmlns="http://www.w3.org/2000/svg">
<path fill-rule="evenodd" clip-rule="evenodd" d="M26.2517 6.5211C26.2517 6.32896 26.1529 6.14469 25.9771 6.00882C25.8013 5.87296 25.5628 5.79663 25.3142 5.79663H3.2023L9.10293 1.2383C9.19009 1.17094 9.25923 1.09098 9.30641 1.00297C9.35358 0.914964 9.37786 0.820638 9.37786 0.72538C9.37786 0.630121 9.35358 0.535796 9.30641 0.447789C9.25923 0.359782 9.19009 0.279816 9.10293 0.212459C9.01576 0.145101 8.91228 0.09167 8.7984 0.0552163C8.68451 0.0187626 8.56245 0 8.43918 0C8.31591 0 8.19384 0.0187626 8.07996 0.0552163C7.96607 0.09167 7.86259 0.145101 7.77543 0.212459L0.275426 6.00817C0.18812 6.07547 0.118852 6.15542 0.0715898 6.24343C0.0243277 6.33145 0 6.4258 0 6.5211C0 6.61639 0.0243277 6.71074 0.0715898 6.79876C0.118852 6.88677 0.18812 6.96672 0.275426 7.03402L7.77543 12.8297C7.86259 12.8971 7.96607 12.9505 8.07996 12.987C8.19384 13.0234 8.31591 13.0422 8.43918 13.0422C8.56245 13.0422 8.68451 13.0234 8.7984 12.987C8.91228 12.9505 9.01576 12.8971 9.10293 12.8297C9.19009 12.7624 9.25923 12.6824 9.30641 12.5944C9.35358 12.5064 9.37786 12.4121 9.37786 12.3168C9.37786 12.2216 9.35358 12.1272 9.30641 12.0392C9.25923 11.9512 9.19009 11.8712 9.10293 11.8039L3.2023 7.24556H25.3142C25.5628 7.24556 25.8013 7.16923 25.9771 7.03337C26.1529 6.89751 26.2517 6.71323 26.2517 6.5211Z" fill="black" fill-opacity="0.2"/>
</svg>
