<svg width="19" height="19" viewBox="0 0 19 19" fill="none" xmlns="http://www.w3.org/2000/svg">
<path d="M11.25 5.875C11.25 5.70924 11.1842 5.55027 11.0669 5.43306C10.9497 5.31585 10.7908 5.25 10.625 5.25C10.4592 5.25 10.3003 5.31585 10.1831 5.43306C10.0658 5.55027 10 5.70924 10 5.875V7.75H8.125C7.95924 7.75 7.80027 7.81585 7.68306 7.93306C7.56585 8.05027 7.5 8.20924 7.5 8.375C7.5 8.54076 7.56585 8.69973 7.68306 8.81694C7.80027 8.93415 7.95924 9 8.125 9H10V10.875C10 11.0408 10.0658 11.1997 10.1831 11.3169C10.3003 11.4342 10.4592 11.5 10.625 11.5C10.7908 11.5 10.9497 11.4342 11.0669 11.3169C11.1842 11.1997 11.25 11.0408 11.25 10.875V9H13.125C13.2908 9 13.4497 8.93415 13.5669 8.81694C13.6842 8.69973 13.75 8.54076 13.75 8.375C13.75 8.20924 13.6842 8.05027 13.5669 7.93306C13.4497 7.81585 13.2908 7.75 13.125 7.75H11.25V5.875Z" fill="black"/>
<path d="M0.625 0.25C0.45924 0.25 0.300269 0.315848 0.183058 0.433058C0.065848 0.550268 0 0.70924 0 0.875C0 1.04076 0.065848 1.19973 0.183058 1.31694C0.300269 1.43415 0.45924 1.5 0.625 1.5H2.0125L2.51375 3.50875L4.38625 13.49C4.41306 13.6332 4.48907 13.7626 4.60114 13.8557C4.71321 13.9488 4.85429 13.9999 5 14H6.25C5.58696 14 4.95107 14.2634 4.48223 14.7322C4.01339 15.2011 3.75 15.837 3.75 16.5C3.75 17.163 4.01339 17.7989 4.48223 18.2678C4.95107 18.7366 5.58696 19 6.25 19C6.91304 19 7.54893 18.7366 8.01777 18.2678C8.48661 17.7989 8.75 17.163 8.75 16.5C8.75 15.837 8.48661 15.2011 8.01777 14.7322C7.54893 14.2634 6.91304 14 6.25 14H15C14.337 14 13.7011 14.2634 13.2322 14.7322C12.7634 15.2011 12.5 15.837 12.5 16.5C12.5 17.163 12.7634 17.7989 13.2322 18.2678C13.7011 18.7366 14.337 19 15 19C15.663 19 16.2989 18.7366 16.7678 18.2678C17.2366 17.7989 17.5 17.163 17.5 16.5C17.5 15.837 17.2366 15.2011 16.7678 14.7322C16.2989 14.2634 15.663 14 15 14H16.25C16.3957 13.9999 16.5368 13.9488 16.6489 13.8557C16.7609 13.7626 16.8369 13.6332 16.8638 13.49L18.7388 3.49C18.7556 3.3998 18.7524 3.30698 18.7294 3.21815C18.7064 3.12931 18.6641 3.04664 18.6055 2.976C18.5469 2.90537 18.4735 2.8485 18.3904 2.80944C18.3074 2.77038 18.2168 2.75008 18.125 2.75H3.6125L3.10625 0.72375C3.07251 0.58848 2.99452 0.468374 2.88466 0.382531C2.77481 0.296688 2.63941 0.250039 2.5 0.25H0.625ZM5.51875 12.75L3.8775 4H17.3725L15.7312 12.75H5.51875ZM7.5 16.5C7.5 16.8315 7.3683 17.1495 7.13388 17.3839C6.89946 17.6183 6.58152 17.75 6.25 17.75C5.91848 17.75 5.60054 17.6183 5.36612 17.3839C5.1317 17.1495 5 16.8315 5 16.5C5 16.1685 5.1317 15.8505 5.36612 15.6161C5.60054 15.3817 5.91848 15.25 6.25 15.25C6.58152 15.25 6.89946 15.3817 7.13388 15.6161C7.3683 15.8505 7.5 16.1685 7.5 16.5ZM16.25 16.5C16.25 16.8315 16.1183 17.1495 15.8839 17.3839C15.6495 17.6183 15.3315 17.75 15 17.75C14.6685 17.75 14.3505 17.6183 14.1161 17.3839C13.8817 17.1495 13.75 16.8315 13.75 16.5C13.75 16.1685 13.8817 15.8505 14.1161 15.6161C14.3505 15.3817 14.6685 15.25 15 15.25C15.3315 15.25 15.6495 15.3817 15.8839 15.6161C16.1183 15.8505 16.25 16.1685 16.25 16.5Z" fill="black"/>
</svg>
