<svg width="512" height="512" viewBox="0 0 512 512" fill="none" xmlns="http://www.w3.org/2000/svg">
<path d="M239.861 152C224.868 151.992 210.083 155.5 196.692 162.243C183.302 168.986 171.68 178.776 162.76 190.826C153.839 202.876 147.87 216.85 145.331 231.626C142.792 246.402 143.754 261.568 148.14 275.904C152.526 290.241 160.213 303.349 170.585 314.175C180.956 325.002 193.722 333.244 207.858 338.241C221.993 343.238 237.103 344.85 251.975 342.947C266.846 341.044 281.063 335.679 293.485 327.284L361.515 395.313L384.142 372.687L316.642 305.187C327.291 290.943 333.765 274.015 335.34 256.3C336.915 238.585 333.528 220.781 325.559 204.882C317.59 188.982 305.352 175.615 290.217 166.275C275.082 156.935 257.646 151.993 239.861 152V152ZM176 247.861C176 235.23 179.745 222.883 186.762 212.381C193.779 201.879 203.753 193.693 215.423 188.859C227.092 184.026 239.933 182.761 252.321 185.225C264.709 187.689 276.088 193.771 285.019 202.703C293.951 211.634 300.033 223.013 302.497 235.401C304.961 247.79 303.696 260.63 298.863 272.299C294.029 283.969 285.843 293.943 275.341 300.96C264.839 307.977 252.492 311.722 239.861 311.722C222.93 311.703 206.698 304.969 194.725 292.997C182.753 281.024 176.019 264.792 176 247.861V247.861Z" fill="white"/>
</svg>
