<svg width="50" height="50" viewBox="0 0 50 50" fill="none" xmlns="http://www.w3.org/2000/svg">
<path d="M42.9688 15.1367H35.7617C36.4258 14.0918 36.8164 12.8516 36.8164 11.5234C36.8164 7.80762 33.7939 4.78516 30.0781 4.78516C28.0566 4.78516 26.2354 5.68359 25 7.09961C23.7646 5.68359 21.9434 4.78516 19.9219 4.78516C16.2061 4.78516 13.1836 7.80762 13.1836 11.5234C13.1836 12.8516 13.5693 14.0918 14.2383 15.1367H7.03125C6.16699 15.1367 5.46875 15.835 5.46875 16.6992V26.4648C5.46875 26.6797 5.64453 26.8555 5.85938 26.8555H7.8125V43.6523C7.8125 44.5166 8.51074 45.2148 9.375 45.2148H40.625C41.4893 45.2148 42.1875 44.5166 42.1875 43.6523V26.8555H44.1406C44.3555 26.8555 44.5312 26.6797 44.5312 26.4648V16.6992C44.5312 15.835 43.833 15.1367 42.9688 15.1367ZM26.6602 11.5234C26.6602 9.63867 28.1934 8.10547 30.0781 8.10547C31.9629 8.10547 33.4961 9.63867 33.4961 11.5234C33.4961 13.4082 31.9629 14.9414 30.0781 14.9414H26.6602V11.5234ZM19.9219 8.10547C21.8066 8.10547 23.3398 9.63867 23.3398 11.5234V14.9414H19.9219C18.0371 14.9414 16.5039 13.4082 16.5039 11.5234C16.5039 9.63867 18.0371 8.10547 19.9219 8.10547ZM8.78906 23.5352V18.457H23.3398V23.5352H8.78906ZM11.1328 26.8555H23.3398V41.8945H11.1328V26.8555ZM38.8672 41.8945H26.6602V26.8555H38.8672V41.8945ZM41.2109 23.5352H26.6602V18.457H41.2109V23.5352Z" fill="#FA748F"/>
</svg>
