<svg width="50" height="50" viewBox="0 0 50 50" fill="none" xmlns="http://www.w3.org/2000/svg">
<path d="M43.75 8.33322C43.7283 8.14184 43.6864 7.95329 43.625 7.77072V7.58322C43.5252 7.35136 43.384 7.13959 43.2084 6.95822C43.0316 6.79211 42.8271 6.65815 42.6042 6.56239H42.4167C42.2247 6.41574 42.005 6.30945 41.7709 6.24989H41.6667C41.4596 6.21846 41.2488 6.21846 41.0417 6.24989L3.5417 18.7499C3.12489 18.8869 2.76197 19.152 2.50469 19.5074C2.2474 19.8628 2.10889 20.2903 2.10889 20.7291C2.10889 21.1678 2.2474 21.5953 2.50469 21.9507C2.76197 22.3061 3.12489 22.5712 3.5417 22.7082L21.3125 28.6249L27.2292 46.3957C27.3662 46.8125 27.6313 47.1754 27.9867 47.4327C28.3421 47.69 28.7696 47.8285 29.2084 47.8285C29.6471 47.8285 30.0747 47.69 30.43 47.4327C30.7854 47.1754 31.0505 46.8125 31.1875 46.3957L43.6875 8.89572C43.7339 8.71194 43.7549 8.52269 43.75 8.33322ZM33.9584 13.1041L22.3542 24.7082L10.75 20.8332L33.9584 13.1041ZM29.1667 39.2499L25.2917 27.6457L36.8959 16.0416L29.1667 39.2499Z" fill="#FA748F"/>
</svg>
