<svg width="24" height="25" viewBox="0 0 24 25" fill="none" xmlns="http://www.w3.org/2000/svg">
<path d="M23.5588 18.9851L18.0824 14.0058C17.8235 13.7706 17.4833 13.6451 17.1337 13.6559C16.784 13.6667 16.4522 13.8129 16.2084 14.0638L12.9845 17.3792C12.2085 17.231 10.6485 16.7447 9.04257 15.1429C7.43669 13.5357 6.95035 11.9716 6.8062 11.201L10.119 7.97576C10.3701 7.73209 10.5166 7.40027 10.5274 7.05051C10.5382 6.70076 10.4125 6.36052 10.1769 6.1018L5.19897 0.62677C4.96327 0.367241 4.63567 0.209817 4.28577 0.187932C3.93586 0.166047 3.5912 0.281426 3.325 0.509564L0.401545 3.01671C0.168626 3.25047 0.029605 3.56158 0.0108524 3.89104C-0.00935581 4.22784 -0.394659 12.206 5.79175 18.395C11.1887 23.7906 17.949 24.1853 19.8109 24.1853C20.083 24.1853 20.25 24.1772 20.2945 24.1745C20.6239 24.1561 20.9349 24.0164 21.1675 23.7825L23.6733 20.8577C23.9024 20.5924 24.0186 20.248 23.9972 19.8981C23.9758 19.5482 23.8185 19.2206 23.5588 18.9851V18.9851Z" fill="white"/>
</svg>
