<svg width="25" height="20" viewBox="0 0 25 20" fill="none" xmlns="http://www.w3.org/2000/svg">
<path d="M24.0135 14.1788H7.41835L8.25159 12.6689L22.0962 12.6466C22.5644 12.6466 22.9657 12.3491 23.0493 11.9375L24.9666 2.38998C25.0167 2.13958 24.9415 1.88174 24.7576 1.68588C24.6666 1.58949 24.5533 1.51184 24.4253 1.45833C24.2973 1.40482 24.1577 1.37671 24.0163 1.37598L6.40397 1.32391L6.25348 0.694186C6.15873 0.29255 5.75187 0 5.28927 0H0.983725C0.722825 0 0.472611 0.0922051 0.288126 0.256331C0.103642 0.420458 0 0.643061 0 0.875171C0 1.10728 0.103642 1.32988 0.288126 1.49401C0.472611 1.65814 0.722825 1.75034 0.983725 1.75034H4.49225L5.14993 4.53204L6.76903 11.5061L4.68454 14.5333C4.57629 14.6633 4.51109 14.8176 4.49631 14.9788C4.48154 15.1401 4.51778 15.3018 4.60094 15.4456C4.76814 15.7407 5.10534 15.9266 5.47877 15.9266H7.22885C6.85575 16.3675 6.65423 16.9045 6.65478 17.4563C6.65478 18.8596 7.93668 20 9.51399 20C11.0913 20 12.3732 18.8596 12.3732 17.4563C12.3732 16.9034 12.167 16.3654 11.7991 15.9266H16.2886C15.9155 16.3675 15.714 16.9045 15.7145 17.4563C15.7145 18.8596 16.9964 20 18.5737 20C20.151 20 21.433 18.8596 21.433 17.4563C21.433 16.9034 21.2267 16.3654 20.8589 15.9266H24.0163C24.5569 15.9266 25 15.5349 25 15.0514C24.9984 14.8196 24.8937 14.5977 24.7089 14.4342C24.5241 14.2707 24.2741 14.1789 24.0135 14.1788ZM6.81362 3.04946L22.8598 3.09657L21.288 10.926L8.68354 10.9458L6.81362 3.04946ZM9.51399 18.2397C9.02909 18.2397 8.63337 17.8877 8.63337 17.4563C8.63337 17.0249 9.02909 16.6729 9.51399 16.6729C9.99889 16.6729 10.3946 17.0249 10.3946 17.4563C10.3946 17.6641 10.3018 17.8634 10.1367 18.0103C9.97153 18.1572 9.74754 18.2397 9.51399 18.2397ZM18.5737 18.2397C18.0888 18.2397 17.6931 17.8877 17.6931 17.4563C17.6931 17.0249 18.0888 16.6729 18.5737 16.6729C19.0586 16.6729 19.4544 17.0249 19.4544 17.4563C19.4544 17.6641 19.3616 17.8634 19.1964 18.0103C19.0313 18.1572 18.8073 18.2397 18.5737 18.2397Z" fill="white"/>
</svg>
