<svg width="24" height="24" viewBox="0 0 24 24" fill="none" xmlns="http://www.w3.org/2000/svg">
<path d="M20 8H22.6667C23.0203 8 23.3594 8.12041 23.6095 8.33474C23.8595 8.54906 24 8.83975 24 9.14286V22.8571C24 23.1602 23.8595 23.4509 23.6095 23.6653C23.3594 23.8796 23.0203 24 22.6667 24H1.33333C0.979711 24 0.640573 23.8796 0.390524 23.6653C0.140476 23.4509 0 23.1602 0 22.8571V9.14286C0 8.83975 0.140476 8.54906 0.390524 8.33474C0.640573 8.12041 0.979711 8 1.33333 8H4V6.85714C4 5.03852 4.84285 3.29437 6.34315 2.00841C7.84344 0.722447 9.87827 0 12 0C14.1217 0 16.1566 0.722447 17.6569 2.00841C19.1571 3.29437 20 5.03852 20 6.85714V8ZM17.3333 8V6.85714C17.3333 5.64472 16.7714 4.48196 15.7712 3.62465C14.771 2.76735 13.4145 2.28571 12 2.28571C10.5855 2.28571 9.22896 2.76735 8.22876 3.62465C7.22857 4.48196 6.66667 5.64472 6.66667 6.85714V8H17.3333ZM10.6667 14.8571V17.1429H13.3333V14.8571H10.6667ZM5.33333 14.8571V17.1429H8V14.8571H5.33333ZM16 14.8571V17.1429H18.6667V14.8571H16Z" fill="white"/>
</svg>
