<svg width="50" height="50" viewBox="0 0 50 50" fill="none" xmlns="http://www.w3.org/2000/svg">
<path d="M41.6666 24.9999V21.4437C41.6666 12.1895 34.4187 4.44157 25.5104 4.17282C20.9187 4.06657 16.6541 5.70616 13.3937 8.87282C11.7863 10.4214 10.5092 12.2795 9.63948 14.3352C8.76976 16.3908 8.32543 18.6012 8.33329 20.8332V24.9999C6.03538 24.9999 4.16663 26.8687 4.16663 29.1666V37.4999C4.16663 39.7978 6.03538 41.6666 8.33329 41.6666H12.5V20.8332C12.4938 19.1593 12.8268 17.5014 13.4788 15.9596C14.1308 14.4178 15.0884 13.0241 16.2937 11.8624C17.494 10.694 18.9176 9.77981 20.4794 9.17449C22.0413 8.56916 23.7091 8.28516 25.3833 8.33949C32.0666 8.53949 37.5 14.4187 37.5 21.4437V41.6666H41.6666C43.9645 41.6666 45.8333 39.7978 45.8333 37.4999V29.1666C45.8333 26.8687 43.9645 24.9999 41.6666 24.9999Z" fill="#FA748F"/>
<path d="M14.5834 25H18.75V41.6667H14.5834V25ZM31.25 25H35.4167V41.6667H31.25V25Z" fill="#FA748F"/>
</svg>
