<svg width="17" height="35" viewBox="0 0 17 35" fill="none" xmlns="http://www.w3.org/2000/svg">
<path d="M2.41243 34.9955C1.84975 34.9966 1.30445 34.7936 0.871186 34.4218C0.627336 34.2124 0.425767 33.9552 0.27802 33.6649C0.130272 33.3747 0.0392518 33.0572 0.0101708 32.7304C-0.0189102 32.4037 0.0145204 32.0743 0.108547 31.761C0.202573 31.4476 0.355347 31.1566 0.558121 30.9046L11.3468 17.5342L0.943433 4.13892C0.743394 3.88376 0.59401 3.59017 0.503868 3.27502C0.413725 2.95987 0.384601 2.62938 0.418169 2.30253C0.451737 1.97568 0.547335 1.65893 0.699469 1.37048C0.851604 1.08203 1.05728 0.827565 1.30466 0.621715C1.55383 0.394627 1.84562 0.223338 2.16172 0.118598C2.47782 0.0138574 2.81142 -0.0220721 3.14157 0.0130622C3.47171 0.0481965 3.79128 0.153637 4.08022 0.322767C4.36916 0.491896 4.62123 0.721063 4.82062 0.995885L16.4522 15.9627C16.8064 16.409 17 16.9689 17 17.5467C17 18.1245 16.8064 18.6843 16.4522 19.1307L4.41122 34.0975C4.16964 34.3994 3.86276 34.638 3.51547 34.794C3.16819 34.95 2.79029 35.0191 2.41243 34.9955Z" fill="#FA748F"/>
</svg>
