<svg width="17" height="35" viewBox="0 0 17 35" fill="none" xmlns="http://www.w3.org/2000/svg">
<path d="M14.5876 0.0045124C15.1503 0.00337364 15.6956 0.206361 16.1288 0.578239C16.3727 0.787647 16.5742 1.04483 16.722 1.33506C16.8697 1.62528 16.9607 1.94284 16.9898 2.26956C17.0189 2.59628 16.9855 2.92573 16.8915 3.23904C16.7974 3.55235 16.6447 3.84338 16.4419 4.09544L5.65319 17.4658L16.0566 30.8611C16.2566 31.1162 16.406 31.4098 16.4961 31.725C16.5863 32.0401 16.6154 32.3706 16.5818 32.6975C16.5483 33.0243 16.4527 33.3411 16.3005 33.6295C16.1484 33.918 15.9427 34.1724 15.6953 34.3783C15.4462 34.6054 15.1544 34.7767 14.8383 34.8814C14.5222 34.9861 14.1886 35.0221 13.8584 34.9869C13.5283 34.9518 13.2087 34.8464 12.9198 34.6772C12.6308 34.5081 12.3788 34.2789 12.1794 34.0041L0.547834 19.0373C0.193633 18.591 7.91819e-07 18.0311 7.91819e-07 17.4533C7.91819e-07 16.8755 0.193633 16.3157 0.547834 15.8693L12.5888 0.902522C12.8304 0.600649 13.1372 0.362018 13.4845 0.205992C13.8318 0.0499659 14.2097 -0.0190618 14.5876 0.0045124Z" fill="#FA748F"/>
</svg>
